<?xml version="1.0" standalone="no"?>
<!DOCTYPE svg PUBLIC "-//W3C//DTD SVG 20010904//EN"
 "http://www.w3.org/TR/2001/REC-SVG-20010904/DTD/svg10.dtd">
<svg version="1.0" xmlns="http://www.w3.org/2000/svg"
 width="260.000000pt" height="260.000000pt" viewBox="0 0 260.000000 260.000000"
 preserveAspectRatio="xMidYMid meet">
<metadata>
Created by potrace 1.14, written by Peter Selinger 2001-2017
</metadata>
<g transform="translate(0.000000,260.000000) scale(0.100000,-0.100000)"
fill="#000000" stroke="none">
<path d="M890 2154 c-143 -37 -273 -131 -358 -258 -70 -105 -93 -177 -99 -311
-7 -139 6 -201 63 -316 100 -198 288 -324 507 -337 l87 -5 -82 84 c-165 167
-235 347 -225 574 9 198 77 353 217 498 l85 87 -70 -1 c-38 0 -95 -7 -125 -15z"/>
<path d="M1375 2151 c-159 -45 -320 -179 -389 -323 -38 -78 -66 -196 -66 -273
l0 -44 83 82 c156 154 329 227 542 227 214 0 388 -73 542 -228 l83 -82 0 47
c0 78 -27 183 -70 272 -73 153 -232 283 -396 325 -83 22 -250 20 -329 -3z"/>
<path d="M1589 1593 c98 -100 151 -183 186 -296 68 -214 44 -443 -67 -632 -24
-40 -76 -105 -124 -152 l-83 -83 45 0 c25 0 80 7 122 16 487 99 667 699 315
1050 -112 112 -275 184 -419 184 l-61 0 86 -87z"/>
<path d="M430 1028 c1 -247 175 -478 427 -565 99 -34 262 -38 358 -9 200 60
365 217 429 408 18 55 36 190 29 218 -5 18 -10 14 -41 -26 -82 -104 -246 -206
-397 -245 -268 -69 -593 32 -760 238 l-45 55 0 -74z"/>
</g>
</svg>
